# xmcd
#
# Track frame offsets:
#	150
#	25001
#	50155
#	66869
#	89109
#	113196
#	124837
#	147099
#
# Disc length: 2664 seconds
#
# Revision: 1
# Processed by: cddbd v1.5.2PL0 Copyright (c) Steve Scherf et al.
# Submitted via: audiograbber 1.83.01
#
DISCID=740a6608
DTITLE=Albert King - Live At The Fabulous Forum - 1972
DYEAR=2015
DGENRE=Blues
TTITLE0=Got To Be Changes Made
TTITLE1=I'll Play The Blues For You
TTITLE2=Killing Floor
TTITLE3=Angel Of Mercy
TTITLE4=Matchbox Blues
TTITLE5=Watermelon Man
TTITLE6=Breakin' Up Somebody's Home
TTITLE7=Stomy Monday
EXTD=
EXTT0=
EXTT1=
EXTT2=
EXTT3=
EXTT4=
EXTT5=
EXTT6=
EXTT7=
PLAYORDER=
